<svg xmlns="http://www.w3.org/2000/svg" xmlns:xlink="http://www.w3.org/1999/xlink" width="50px" height="20px" viewBox="0 0 50 20">
	<path d="M29.988,17.5c-0.022,0-0.044-0.001-0.066-0.004l-27.988-3.75C1.686,13.712,1.5,13.5,1.5,13.25v-7.5
		c0-0.25,0.186-0.462,0.434-0.496l27.988-3.75c0.145-0.02,0.287,0.024,0.396,0.119C30.426,1.719,30.488,1.856,30.488,2v3.538H47
		c0.276,0,0.5,0.224,0.5,0.5v6.923c0,0.276-0.224,0.5-0.5,0.5H30.488V17c0,0.144-0.062,0.281-0.171,0.376
		C30.226,17.457,30.108,17.5,29.988,17.5z" />
</svg>
